<svg width="30" height="30" viewBox="0 0 30 30" fill="none" xmlns="http://www.w3.org/2000/svg">
<g clip-path="url(#clip0_110_32)">
<path d="M0 14.4C0 7.61175 0 4.21766 2.10883 2.10883C4.21766 0 7.61175 0 14.4 0H15.6C22.3883 0 25.7823 0 27.8912 2.10883C30 4.21766 30 7.61175 30 14.4V15.6C30 22.3883 30 25.7823 27.8912 27.8912C25.7823 30 22.3883 30 15.6 30H14.4C7.61175 30 4.21766 30 2.10883 27.8912C0 25.7823 0 22.3883 0 15.6V14.4Z" fill="url(#paint0_linear_110_32)"/>
<path d="M11.0404 20.9885L11.315 21.1243C12.4595 21.803 13.7413 22.1197 15.023 22.1197C19.0514 22.1197 22.3474 18.8619 22.3474 14.8802C22.3474 12.9799 21.5691 11.1247 20.1959 9.76729C18.8225 8.40987 16.9914 7.6407 15.023 7.6407C10.9947 7.6407 7.69864 10.8985 7.74444 14.9255C7.74444 16.2828 8.15644 17.5951 8.84307 18.7262L9.02616 18.9977L8.29379 21.6673L11.0404 20.9885Z" fill="#31D652"/>
<path d="M20.974 9.04333C19.4176 7.45972 17.2661 6.6 15.0688 6.6C10.3996 6.6 6.64581 10.3555 6.69155 14.9254C6.69155 16.3733 7.10354 17.776 7.79024 19.0429L6.6 23.3414L11.0404 22.2102C12.2764 22.8889 13.6496 23.2057 15.023 23.2057C19.6465 23.2057 23.4003 19.4501 23.4003 14.8803C23.4003 12.6631 22.5304 10.5817 20.974 9.04333ZM15.0688 21.803C13.8328 21.803 12.5968 21.4864 11.5439 20.8529L11.2693 20.7171L8.61423 21.3958L9.30086 18.8168L9.11777 18.5453C7.10354 15.3328 8.06488 11.0794 11.3608 9.08854C14.6568 7.09771 18.9141 8.04791 20.9283 11.3057C22.9425 14.5635 21.9811 18.7714 18.6852 20.7623C17.6323 21.441 16.3506 21.803 15.0688 21.803ZM19.0972 16.7807L18.5936 16.5544C18.5936 16.5544 17.8612 16.2377 17.4035 16.0114C17.3576 16.0114 17.3119 15.9662 17.2661 15.9662C17.1287 15.9662 17.0372 16.0114 16.9457 16.0567C16.9457 16.0567 16.8999 16.1019 16.259 16.8259C16.2132 16.9164 16.1217 16.9616 16.0301 16.9616H15.9843C15.9386 16.9616 15.847 16.9164 15.8012 16.8712L15.5723 16.7807C15.0688 16.5544 14.611 16.2829 14.2448 15.921C14.1532 15.8305 14.0159 15.74 13.9243 15.6495C13.6039 15.3328 13.2834 14.9707 13.0546 14.5635L13.0088 14.473C12.9631 14.4278 12.9631 14.3826 12.9173 14.2921C12.9173 14.2016 12.9173 14.1111 12.9631 14.0658C12.9631 14.0658 13.1462 13.8396 13.2834 13.7039C13.3751 13.6133 13.4208 13.4776 13.5123 13.3871C13.6039 13.2514 13.6497 13.0704 13.6039 12.9346C13.5582 12.7084 13.0088 11.4867 12.8715 11.2153C12.7799 11.0795 12.6884 11.0343 12.5511 10.989H12.0475C11.9559 10.989 11.8644 11.0343 11.7728 11.0343L11.727 11.0795C11.6355 11.1248 11.5439 11.2153 11.4524 11.2605C11.3608 11.351 11.315 11.4415 11.2235 11.532C10.903 11.9392 10.7199 12.4369 10.7199 12.9346C10.7199 13.2966 10.8115 13.6586 10.9488 13.9753L10.9946 14.1111C11.4066 14.9707 11.9559 15.74 12.6884 16.4187L12.8715 16.5996C13.0088 16.7354 13.1462 16.8259 13.2377 16.9616C14.199 17.7761 15.2977 18.3643 16.5337 18.681C16.671 18.7262 16.8541 18.7262 16.9915 18.7715H17.4492C17.6781 18.7715 17.9527 18.681 18.1359 18.5905C18.2732 18.5 18.3647 18.5 18.4563 18.4096L18.5479 18.319C18.6394 18.2285 18.731 18.1833 18.8225 18.0928C18.9141 18.0023 19.0056 17.9118 19.0514 17.8213C19.143 17.6403 19.1887 17.4141 19.2345 17.1879V16.8712C19.2345 16.8712 19.1887 16.8259 19.0972 16.7807Z" fill="white"/>
</g>
<defs>
<linearGradient id="paint0_linear_110_32" x1="15" y1="0" x2="15" y2="30" gradientUnits="userSpaceOnUse">
<stop stop-color="#42E760"/>
<stop offset="0.765625" stop-color="#29CB4A"/>
</linearGradient>
<clipPath id="clip0_110_32">
<rect width="30" height="30" fill="white"/>
</clipPath>
</defs>
</svg>
